<svg xmlns="http://www.w3.org/2000/svg" viewBox="0 0 470 470"><path d="M470 37.5C470 16.822 453.178 0 432.5 0c-52.199 0-100.796 25.973-130 68.61V67.5C302.5 30.28 272.22 0 235 0s-67.5 30.28-67.5 67.5v1.111C138.296 25.973 89.698 0 37.5 0 16.822 0 0 16.822 0 37.5c0 128.542 26.079 252.871 77.5 369.568V432.5c0 20.678 16.822 37.5 37.5 37.5h240c20.678 0 37.5-16.822 37.5-37.5v-25.43C443.92 290.373 470 166.043 470 37.5zM432.5 15c12.406 0 22.5 10.094 22.5 22.5 0 114.444-21.015 225.486-62.5 330.634v-76.617c23.186-76.527 35.735-156.041 37.323-236.471.891-.023 1.782-.046 2.677-.046 4.143 0 7.5-3.357 7.5-7.5s-3.357-7.5-7.5-7.5c-3.593 0-7.156.179-10.686.498-.072.006-.143.011-.214.019-36.566 3.374-69.322 23.592-88.82 54.912a158.25 158.25 0 00-20.782-13.97C338.031 40.286 383.512 15 432.5 15zm-88.261 90.464c15.418-26.115 41.203-43.817 70.55-48.935-1.305 59.829-8.783 119.129-22.289 177.022V218.81c0-44.464-18.527-84.68-48.261-113.346zM235 15c28.948 0 52.5 23.552 52.5 52.5v2.819a156.242 156.242 0 00-15.042-4.496C271.577 45.921 255.115 30 235 30s-36.577 15.921-37.458 35.823a156.157 156.157 0 00-15.042 4.496V67.5c0-28.948 23.551-52.5 52.5-52.5zm22.016 47.856c-7.197-1.011-14.544-1.546-22.016-1.546s-14.819.535-22.016 1.546C215.13 52.671 224.185 45 235 45c10.815 0 19.87 7.671 22.016 17.856zM15 37.5C15 25.094 25.093 15 37.5 15c48.987 0 94.469 25.287 120.502 66.459a158.074 158.074 0 00-20.781 13.97C117.723 64.108 84.967 43.891 48.4 40.517c-.071-.008-.143-.013-.215-.019C44.655 40.179 41.093 40 37.5 40c-4.142 0-7.5 3.357-7.5 7.5s3.358 7.5 7.5 7.5c.895 0 1.785.023 2.676.046 1.59 80.431 14.138 159.943 37.324 236.471v76.618C36.015 262.985 15 151.943 15 37.5zm62.5 181.311v14.739C63.994 175.657 56.516 116.358 55.211 56.529c29.347 5.117 55.132 22.819 70.551 48.934C96.028 134.129 77.5 174.345 77.5 218.811zM355 455H115c-12.407 0-22.5-10.094-22.5-22.5V218.811c0-78.575 63.925-142.5 142.5-142.5s142.5 63.925 142.5 142.5V432.5c0 12.406-10.094 22.5-22.5 22.5z"/><path d="M115 214.832a7.5 7.5 0 00-7.5 7.5v15.028c0 4.143 3.358 7.5 7.5 7.5s7.5-3.357 7.5-7.5v-15.028a7.5 7.5 0 00-7.5-7.5zm9.381-43.137a7.5 7.5 0 00-9.577 4.558 126.955 126.955 0 00-4.383 15.357 7.5 7.5 0 005.729 8.926 7.5 7.5 0 001.606.175 7.503 7.503 0 007.32-5.903 111.764 111.764 0 013.863-13.535 7.5 7.5 0 00-4.558-9.578zm16.827-14.943a113.415 113.415 0 018.495-11.213 7.498 7.498 0 00-.793-10.576 7.498 7.498 0 00-10.577.793 128.439 128.439 0 00-9.621 12.699 7.498 7.498 0 002.1 10.396 7.458 7.458 0 004.142 1.253 7.492 7.492 0 006.254-3.352zm24.429-28.308a7.466 7.466 0 004.34-1.389 113.016 113.016 0 0111.971-7.431 7.5 7.5 0 00-7.097-13.215 128.237 128.237 0 00-13.565 8.421 7.5 7.5 0 00-1.766 10.458 7.483 7.483 0 006.117 3.156zm40.027-18.506a7.51 7.51 0 001.838-.229 112.3 112.3 0 0113.842-2.574 7.501 7.501 0 006.54-8.352c-.5-4.11-4.237-7.026-8.351-6.539a127.597 127.597 0 00-15.697 2.92 7.499 7.499 0 00-5.439 9.105 7.503 7.503 0 007.267 5.669zm43.105-2.791a112.1 112.1 0 0113.831 2.586 7.523 7.523 0 001.846.231 7.503 7.503 0 007.265-5.662 7.498 7.498 0 00-5.431-9.11 127.267 127.267 0 00-15.687-2.934c-4.104-.497-7.853 2.421-8.356 6.532s2.42 7.854 6.532 8.357zm39.371 12.525a113.188 113.188 0 0111.963 7.44 7.494 7.494 0 0010.46-1.758 7.501 7.501 0 00-1.759-10.46 128.25 128.25 0 00-13.555-8.431 7.501 7.501 0 00-7.109 13.209zm53.223 28.895a128.707 128.707 0 00-9.625-12.729 7.5 7.5 0 00-11.379 9.773 113.903 113.903 0 018.5 11.241 7.49 7.49 0 006.259 3.358 7.499 7.499 0 006.245-11.643zm12.506 52.102a7.501 7.501 0 005.74-8.92 127.06 127.06 0 00-4.369-15.373 7.497 7.497 0 00-9.572-4.568 7.5 7.5 0 00-4.568 9.572 111.899 111.899 0 013.851 13.549 7.501 7.501 0 008.918 5.74zM355 214.958a7.499 7.499 0 00-7.5 7.5V237.5c0 4.143 3.357 7.5 7.5 7.5s7.5-3.357 7.5-7.5v-15.042c0-4.143-3.357-7.5-7.5-7.5zM310 260H160c-12.407 0-22.5 10.094-22.5 22.5v105c0 12.406 10.093 22.5 22.5 22.5h150c12.406 0 22.5-10.094 22.5-22.5v-15c0-4.143-3.357-7.5-7.5-7.5s-7.5 3.357-7.5 7.5v15c0 4.136-3.364 7.5-7.5 7.5H160c-4.136 0-7.5-3.364-7.5-7.5V315h135v22.5c0 4.143 3.357 7.5 7.5 7.5s7.5-3.357 7.5-7.5V315h15v27.5c0 4.143 3.357 7.5 7.5 7.5s7.5-3.357 7.5-7.5v-60c0-12.406-10.094-22.5-22.5-22.5zm-157.5 40v-17.5c0-4.136 3.364-7.5 7.5-7.5h150c4.136 0 7.5 3.364 7.5 7.5V300h-165z"/></svg>